<?xml version="1.0" encoding="UTF-8" standalone="no"?>
<!-- Generator: Adobe Illustrator 16.0.0, SVG Export Plug-In . SVG Version: 6.00 Build 0)  -->

<svg
   xmlns:dc="http://purl.org/dc/elements/1.1/"
   xmlns:cc="http://creativecommons.org/ns#"
   xmlns:rdf="http://www.w3.org/1999/02/22-rdf-syntax-ns#"
   xmlns:svg="http://www.w3.org/2000/svg"
   xmlns="http://www.w3.org/2000/svg"
   xmlns:sodipodi="http://sodipodi.sourceforge.net/DTD/sodipodi-0.dtd"
   xmlns:inkscape="http://www.inkscape.org/namespaces/inkscape"
   version="1.1"
   id="Landkreis_Vorpommern-Greifswald"
   x="0px"
   y="0px"
   width="316.80182"
   height="314.54437"
   viewBox="0 0 316.80182 314.54437"
   enable-background="new 0 0 900 928"
   xml:space="preserve"
   inkscape:version="0.91 r13725"
   sodipodi:docname="Benz_(Usedom)_in_VG.svg"><metadata
     id="metadata281"><rdf:RDF><cc:Work
         rdf:about=""><dc:format>image/svg+xml</dc:format><dc:type
           rdf:resource="http://purl.org/dc/dcmitype/StillImage" /><dc:title></dc:title></cc:Work></rdf:RDF></metadata><defs
     id="defs279" /><sodipodi:namedview
     pagecolor="#ffffff"
     bordercolor="#666666"
     borderopacity="1"
     objecttolerance="10"
     gridtolerance="10"
     guidetolerance="10"
     inkscape:pageopacity="0"
     inkscape:pageshadow="2"
     inkscape:window-width="1680"
     inkscape:window-height="979"
     id="namedview277"
     showgrid="false"
     fit-margin-top="0"
     fit-margin-left="0"
     fit-margin-right="0"
     fit-margin-bottom="0"
     inkscape:zoom="1.7992321"
     inkscape:cx="158.40091"
     inkscape:cy="160.698"
     inkscape:window-x="-4"
     inkscape:window-y="-4"
     inkscape:window-maximized="1"
     inkscape:current-layer="Landkreis_Vorpommern-Greifswald" /><path
     style="opacity:1;fill:#aadd44;fill-opacity:1;fill-rule:evenodd;stroke:none;stroke-width:1px;stroke-linecap:butt;stroke-linejoin:miter;stroke-opacity:1"
     d="m 33.07732,4.240455 c 14.59757,37.536578 38.84074,80.264838 89.16458,88.613418 32.14811,11.562217 52.70901,43.369767 84.54238,67.830497 36.01077,33.48764 49.61172,62.13521 90.16052,61.90836 8.55577,10.29393 -8.91304,21.04489 -17.15823,26.11647 9.47248,5.63391 30.36189,58.57199 37.01525,65.68902 -24.40898,2.79724 -33.71665,-35.39933 -68.3475,-42.91525 -39.97588,5.94644 -72.1723,-0.70905 -88.4025,1.03415 -11.10504,10.19565 -14.06844,11.34271 -22.41768,21.54878 -11.39221,-0.77004 -14.28797,2.95897 -27.97866,4.86586 -2.25887,-7.60131 5.88951,-3.73674 7.64634,-11.46952 1.19462,-5.25818 -5.38229,-9.41355 -10.77438,-9.38414 -10.83773,0.0591 -2.61769,19.39502 -12.85976,22.93902 -28.90561,6.6755 -27.74595,-8.03053 -46.92073,-7.47256 -0.21533,-5.77963 3.60466,-11.83311 6.42988,-17.55183 45.88281,-3.2579 62.04171,-36.33777 48.31097,-64.82012 -0.62007,-14.18247 -17.84865,-14.49859 -18.42073,-23.28658 -0.83239,-12.78668 7.36397,-25.01857 20.15853,-25.71951 14.77673,-4.53039 21.29423,7.00109 23.11281,20.85366 -10.4781,7.91503 -10.36262,9.94867 -10.60061,32.84451 12.59301,-15.93007 4.8478,-19.29419 13.3811,-23.98171 5.02735,-2.76163 10.92783,-2.88682 16.50914,-1.56402 2.29443,0.54379 4.41573,-0.0826 9.73171,1.7378 -2.2363,2.96504 -8.36677,3.46513 -7.9939,6.60365 2.48673,5.60876 12.32354,11.1544 17.72561,10.94818 -1.34351,-24.45782 8.67164,-45.27145 -1.21647,-63.25609 -6.09815,-11.81078 -7.89622,-7.34832 -12.68597,-4.51829 -3.21478,-0.4672 -3.99287,6.71274 -6.77744,5.03963 -2.40532,-21.23005 -3.51516,-34.94654 -21.375,-44.14024 -17.41294,-1.19529 -17.21107,-3.145227 -29.89024,-2.43292 -1.78491,9.14758 -3.21489,10.84688 -1.39025,15.81402 2.21747,6.03652 12.60058,7.22367 13.72866,13.55488 0.74094,4.1584 -2.29545,8.59159 -5.38719,11.46951 -10.65086,-4.92268 -30.52387,12.75405 -34.7561,13.38109 -6.34321,6.40565 -7.15616,-1.79067 -7.64634,-5.90853 0.34621,-5.36476 13.28131,-20.3383 16.16159,-27.45732 -1.59751,-5.54026 -11.79609,-6.6881 -17.46239,-5.6206 -6.85619,3.47854 -20.35791,13.52138 -28.7036,26.25831 -11.67486,3.04082 -17.268,-0.88131 -19.34926,-7.95173 2.53718,-11.42183 7.05731,-12.62488 13.1775,-17.04795 4.14672,-2.99684 17.84225,-4.20921 21.16118,-8.10293 2.26992,-2.66304 -2.93204,-6.02962 -5.6649,-8.21497 -1.77423,-1.418767 -4.24605,2.88496 -6.42988,2.25914 -3.20905,-0.91961 -3.16917,-3.312947 -3.79847,-6.591307 4.53529,-9.95843 5.24804,-10.64335 7.27408,-33.20442 C 22.79757,54.964433 6.14138,47.788903 0,21.578123 5.15961,0.05994499 18.13219,-4.622345 33.07732,4.240455 Z"
     id="path5024"
     inkscape:connector-curvature="0"
     sodipodi:nodetypes="ccccccccccccccccccccccccccccccccccccccccccccccc"
     inkscape:export-xdpi="28.612818"
     inkscape:export-ydpi="28.612818" /></svg>